<svg width="103" height="20" fill="none" xmlns="http://www.w3.org/2000/svg"><g clip-path="url(#clip0_523_15061)" fill="#000"><path d="M54.668.578v8.64c-1.073.47-2.305.745-3.855.745-2.107 0-3.697-.88-3.697-2.984V.58H41.99v6.4c0 5.415 4.144 7.697 7.95 7.697 2.49 0 3.258-.236 4.73-.707v6.015h5.127V.578h-5.128zM0 .571h19.211v5.025H0V.57z"/><path d="M12.034 5.034L12.028 20l-5.126-.002.007-14.966 5.125.002zM67.5.612L67.494 20l-5.126-.002.009-19.389L67.5.612zM80.156.573l-.009 19.39-5.126-.003L75.03.57l5.126.002z"/><path d="M62.367 7.651h17.026v5.14H62.367V7.65z"/><path fill-rule="evenodd" clip-rule="evenodd" d="M30.198 19.984c5.559 0 10.066-4.474 10.066-9.992C40.264 4.474 35.757 0 30.197 0c-5.56 0-10.066 4.474-10.066 9.992 0 5.518 4.506 9.992 10.066 9.992zm0-4.937c2.812 0 5.092-2.263 5.092-5.055s-2.28-5.055-5.092-5.055c-2.813 0-5.093 2.263-5.093 5.055s2.28 5.055 5.093 5.055zm62.178 4.937c5.56 0 10.066-4.474 10.066-9.992C102.442 4.474 97.936 0 92.376 0 86.817 0 82.31 4.474 82.31 9.992c0 5.518 4.507 9.992 10.066 9.992zm0-4.937c2.813 0 5.093-2.263 5.093-5.055s-2.28-5.055-5.093-5.055c-2.812 0-5.092 2.263-5.092 5.055s2.28 5.055 5.092 5.055z"/></g><defs><clipPath id="clip0_523_15061"><path fill="#fff" d="M0 0h102.442v20H0z"/></clipPath></defs></svg>