<svg width="90" height="90" fill="none" xmlns="http://www.w3.org/2000/svg"><path fill-rule="evenodd" clip-rule="evenodd" d="M31.5 48.5a6.5 6.5 0 11-13 0 6.5 6.5 0 0113 0zm-2 0a4.5 4.5 0 11-9 0 4.5 4.5 0 019 0z" fill="#CC9C63"/><path fill-rule="evenodd" clip-rule="evenodd" d="M35.441 39.249c-5.788-5.623-15.033-5.571-20.742.137a14.765 14.765 0 00-2.405 17.72l12.693 22.4 12.936-22.175c3.428-5.877 2.397-13.343-2.482-18.082zM16.114 40.8c4.933-4.932 12.927-4.98 17.934-.117 4.22 4.1 5.111 10.56 2.148 15.64l-11.183 19.17L14.034 56.12a12.765 12.765 0 012.08-15.32zM75 16a5 5 0 11-10 0 5 5 0 0110 0zm-2 0a3 3 0 11-6 0 3 3 0 016 0z" fill="#CC9C63"/><path fill-rule="evenodd" clip-rule="evenodd" d="M76.962 8.465c-3.965-3.812-10.257-3.777-14.169.094a10.142 10.142 0 00-1.667 12.25L69.82 35.99l8.86-15.028a10.175 10.175 0 00-1.719-12.497zM64.2 9.98c3.138-3.106 8.19-3.136 11.376-.074a8.175 8.175 0 011.383 10.04L69.846 32.01 62.86 19.815A8.142 8.142 0 0164.2 9.98z" fill="#CC9C63"/><path d="M70 38.5a1 1 0 00-2 0c0 .358-.132.716-.45 1.108a1 1 0 101.555 1.258c.533-.658.895-1.447.895-2.366zm-4.288 4.825a1 1 0 10-.91-1.781c-.85.434-1.773.843-2.717 1.262l-.689.306a1 1 0 00.816 1.826l.66-.293c.949-.42 1.936-.858 2.84-1.32zm-6.744 3.268a1 1 0 10-1.093-1.675c-.644.42-1.243.906-1.675 1.482a18.004 18.004 0 00-1.051 1.57 1 1 0 101.716 1.026c.286-.478.596-.944.935-1.396.235-.313.62-.649 1.168-1.007zm-3.587 5.464a1 1 0 10-1.86-.735 43.982 43.982 0 00-1.177 3.455 1 1 0 101.914.58c.34-1.126.7-2.228 1.123-3.3zM53.25 58.78a1 1 0 10-1.915-.579c-.344 1.138-.703 2.239-1.125 3.293a1 1 0 101.857.744c.454-1.134.832-2.298 1.182-3.459zm-2.863 6.806a1 1 0 00-1.69-1.069 13.82 13.82 0 01-.97 1.35c-.411.501-.831.96-1.259 1.382a1 1 0 101.404 1.424c.479-.472.947-.983 1.402-1.54.408-.5.777-1.016 1.113-1.547zm-5.78 5.664a1 1 0 00-1.062-1.696c-1.097.688-2.226 1.233-3.37 1.705a1 1 0 00.764 1.849c1.215-.502 2.451-1.096 3.668-1.859zm-7.433 3.236a1 1 0 00-.651-1.892c-1.28.441-2.567.89-3.778 1.445a1 1 0 00.832 1.818c1.11-.507 2.308-.928 3.597-1.371zM30.5 77.793a1 1 0 00-1.333-1.491A10.98 10.98 0 0027.7 77.9a1 1 0 101.6 1.2 8.94 8.94 0 011.2-1.307z" fill="#293A50"/><path fill-rule="evenodd" clip-rule="evenodd" d="M80.611 65.875c3.547 0 6.202-2.883 6.202-7.938S84.158 50 80.61 50c-3.568 0-6.223 2.882-6.223 7.937s2.655 7.938 6.223 7.938zm0-1.974c-2.393 0-4.047-1.995-4.047-5.964 0-3.968 1.654-5.964 4.047-5.964 2.372 0 4.026 1.996 4.026 5.964 0 3.969-1.654 5.964-4.026 5.964z" fill="#293A50"/><path d="M67.767 56.696l3.982-5.011v-1.508H61.696v1.93h7.333l-3.83 4.788v1.552h1.22c2.61 0 3.764 1.064 3.764 2.705 0 1.685-1.306 2.75-3.59 2.75-1.872 0-3.57-.688-4.592-1.663l-1 1.751c1.283 1.175 3.415 1.885 5.591 1.885 3.874 0 5.767-2.129 5.767-4.745 0-2.395-1.545-4.146-4.592-4.434zM68.15 73c.562-.731 1.502-1.183 2.611-1.183 1.685 0 2.86.97 2.86 3.112V79h-1.632v-3.858c0-1.264-.575-1.876-1.567-1.876-1.07 0-1.815.719-1.815 2.129V79h-1.632v-3.858c0-1.264-.574-1.876-1.566-1.876-1.084 0-1.815.719-1.815 2.129V79h-1.632v-7.104h1.553v.905c.523-.639 1.332-.984 2.285-.984 1.019 0 1.867.385 2.35 1.184zm8.705-2.274c.614 0 1.044-.453 1.044-1.038 0-.545-.444-.958-1.044-.958-.6 0-1.044.44-1.044.998 0 .559.443.998 1.044.998zM77.664 79h-1.632v-7.104h1.632V79zm6.425-7.183c-1.019 0-1.867.345-2.403.997v-.918h-1.553V79h1.632v-3.592c0-1.423.783-2.142 1.945-2.142 1.044 0 1.658.612 1.658 1.876V79H87v-4.07c0-2.142-1.24-3.114-2.911-3.114z" fill="#293A50"/></svg>