<svg width="16" height="18" fill="none" xmlns="http://www.w3.org/2000/svg"><path d="M15.5 15.667V4c0-.92-.748-1.667-1.667-1.667h-1.666V.667H10.5v1.666h-5V.667H3.833v1.666H2.167C1.247 2.333.5 3.081.5 4v11.667c0 .919.748 1.666 1.667 1.666h11.666c.92 0 1.667-.747 1.667-1.666zM5.5 14H3.833v-1.667H5.5V14zm0-3.333H3.833V9H5.5v1.667zM8.833 14H7.167v-1.667h1.666V14zm0-3.333H7.167V9h1.666v1.667zM12.167 14H10.5v-1.667h1.667V14zm0-3.333H10.5V9h1.667v1.667zM13.833 6.5H2.167V4.833h11.666V6.5z" fill="#CC9C63"/></svg>