<svg width="20" height="20" fill="none" xmlns="http://www.w3.org/2000/svg"><g clip-path="url(#clip0_601_590)"><path d="M19 5.892v8.223c0 .765-.296 1.5-.824 2.04a2.777 2.777 0 01-1.988.845H3.813a2.777 2.777 0 01-1.99-.845A2.923 2.923 0 011 14.115V5.892l8.714 5.26a.552.552 0 00.572 0L19 5.891zM16.187 2c.692 0 1.36.261 1.876.735a2.91 2.91 0 01.92 1.83L10 9.985l-8.983-5.42a2.91 2.91 0 01.92-1.83A2.773 2.773 0 013.812 2h12.376z" fill="#CC9C63"/></g><defs><clipPath id="clip0_601_590"><path fill="#fff" d="M0 0h20v20H0z"/></clipPath></defs></svg>