<svg width="112" height="24" fill="none" xmlns="http://www.w3.org/2000/svg"><g clip-path="url(#clip0_174_937)"><path d="M2.382 11.886c-.097-4.835 7.486-4.835 7.389-.05a3.491 3.491 0 01-.915 2.501 3.46 3.46 0 01-2.778 1.114c-1.896 0-3.743-1.172-3.694-3.565h-.002zM1.8 7.539A5.912 5.912 0 000 11.84v10.985c-.048 1.563 2.431 1.514 2.383 0V16.72c3.792 3.127 9.965.098 9.771-4.884.146-3.614-3.112-6.154-6.27-6.154A5.98 5.98 0 001.8 7.54m12.154-6.316v15.872a1.236 1.236 0 00.751 1.142 1.22 1.22 0 001.338-.262 1.105 1.105 0 00.34-.88V1.224c.01-.301-.1-.594-.305-.815a1.13 1.13 0 00-.908-.36 1.16 1.16 0 00-.836.306 1.17 1.17 0 00-.376.809v.058M27.406 12c.049 1.905-1.114 3.76-3.503 3.711a3.363 3.363 0 01-2.688-.998A3.396 3.396 0 0120.257 12a3.589 3.589 0 01.944-2.567 3.559 3.559 0 012.474-1.144h.228a3.453 3.453 0 012.464.99 3.482 3.482 0 011.046 2.45c0 .09 0 .181-.007.27zm-7.874-4.295c-5.348 5.274 2.09 13.68 7.971 9.18.05 1.515 2.432 1.612 2.383 0v-4.788c.194-3.663-2.965-6.154-6.174-6.154a5.324 5.324 0 00-4.18 1.76m11.575 1.855a3.444 3.444 0 00.83 2.488 3.413 3.413 0 002.718 1.175c2.723.39.292 4.15-1.214 1.76-1.8-2.735-3.598.684-1.07 2.345 3.451 2.93 8.07-2.394 4.862-5.47-.924-1.172-2.383-.733-3.451-1.466-1.41-1.368 1.311-3.125 1.99-1.465 2.188 3.321 4.279-2.783-1.114-3.076h-.098a3.529 3.529 0 00-2.48 1.104 3.562 3.562 0 00-.976 2.541v.064M43.39.004c-2.09-.098-.923 4.981-1.166 6.105h-.535c-1.021-.05-2.431-.099-2.431 1.22-.049 1.317 1.41 1.268 2.43 1.22h.487v8.596c-.023.317.08.63.287.872a1.192 1.192 0 002.095-.872V8.5h1.702a1.127 1.127 0 001.068-.671 1.141 1.141 0 00.098-.546 1.144 1.144 0 00-.619-1.102 1.13 1.13 0 00-.426-.12 1.006 1.006 0 00-.12 0h-1.703c-.243-1.028.924-6.057-1.07-6.057h-.096zm5.264 7.276c.097.293-.34 10.94.34 10.695a1.199 1.199 0 002.042-.88V7.28a1.143 1.143 0 00-.307-.816 1.132 1.132 0 00-.908-.359 1.143 1.143 0 00-1.073.696c-.06.14-.092.289-.094.44v.039zm1.264-6.056a1.135 1.135 0 00-1.169 1.102v.118a1.146 1.146 0 00.273.828 1.135 1.135 0 00.776.39.952.952 0 00.117 0 1.104 1.104 0 001.062-.63c.064-.132.1-.275.108-.42a1.091 1.091 0 000-.17 1.203 1.203 0 00-.333-.852 1.192 1.192 0 00-.833-.369m2.987.003v15.872a1.236 1.236 0 00.751 1.143 1.22 1.22 0 001.339-.263 1.109 1.109 0 00.34-.88V1.224A1.142 1.142 0 0054.67.15a1.129 1.129 0 00-.431-.1.978.978 0 00-.119 0 1.16 1.16 0 00-.836.305 1.17 1.17 0 00-.377.809v.058m4.201 6.058v9.816a1.215 1.215 0 00.734 1.125c.145.062.302.095.46.096h.023a1.172 1.172 0 001.167-1.164V7.28a1.14 1.14 0 00-.306-.816 1.131 1.131 0 00-.908-.358 1.115 1.115 0 00-1.063.65 1.131 1.131 0 00-.103.522l-.004.002zm1.219-6.058a1.129 1.129 0 00-1.07.669 1.143 1.143 0 00-.1.55 1.145 1.145 0 00.623 1.101 1.129 1.129 0 00.544.118 1.11 1.11 0 00.802-.282 1.117 1.117 0 00.364-.939 1.144 1.144 0 00-.622-1.1 1.129 1.129 0 00-.544-.117m2.783 15.665c-.049 1.563 2.48 1.563 2.382 0V12c-.097-4.834 7.486-4.786 7.39 0v4.885a1.192 1.192 0 002.382 0c.29-4.786.238-10.842-6.126-11.04-6.223.195-6.271 6.202-6.028 11.04" fill="#fff"/><path d="M94.219 17.096c.097 1.612-2.334 1.514-2.383 0-5.882 4.541-13.32-3.906-7.972-9.18 3.597-3.908 10.597-1.027 10.352 4.345v4.835h.003zm-5.98-1.172c4.715.146 4.666-7.471 0-7.375-4.763-.145-4.959 7.52 0 7.375zm10.064 1.172a1.202 1.202 0 01-.38.788 1.191 1.191 0 01-2.002-.788v-4.88c-.778-3.375 6.077-8.696 7.339-4.936a1.236 1.236 0 01-1.214 1.22c-4.521-.097-3.695 5.665-3.743 8.596m12.589-10.989a1.195 1.195 0 011.102 1.197 1.195 1.195 0 01-1.102 1.196h-1.701v8.596a1.235 1.235 0 01-1.212 1.224 1.19 1.19 0 01-.834-.369 1.204 1.204 0 01-.333-.852V8.5c-.972 0-2.965.294-2.917-1.22-.048-1.513 1.991-1.171 2.917-1.171.291-1.12-.926-6.202 1.167-6.108 2.089-.146.923 4.982 1.214 6.105l1.699.002z" fill="#E55030"/></g><defs><clipPath id="clip0_174_937"><path fill="#fff" d="M0 0h112v24H0z"/></clipPath></defs></svg>