<svg width="90" height="90" fill="none" xmlns="http://www.w3.org/2000/svg"><g clip-path="url(#clip0_518_153)"><path fill-rule="evenodd" clip-rule="evenodd" d="M54 17a1 1 0 00-2 0v4.996l-2.077 2.661a2 2 0 00-.423 1.23v8.802h-7v-3.74l.942-.503a2 2 0 001.058-1.764v-2.138a2 2 0 00-2-2H40a2 2 0 00-2 2v2.077a2 2 0 001.214 1.84l1.286.549v3.68h-2.083a8 8 0 00-6.307 3.078l-1.638 2.099c-1.025 1.313-.09 3.23 1.577 3.23h14.95v3.408a3 3 0 003 3h2v16.134l-4.834 3.786C45.67 70.597 46.497 73 48.4 73h9.2c1.901 0 2.73-2.403 1.233-3.575L54 65.64V49.505h2a3 3 0 003-3v-3.408a2 2 0 00-2-2H32.049l1.637-2.099a5.999 5.999 0 014.73-2.309h29.446a6 6 0 014.91 2.552l1.303 1.856H62.5a1 1 0 000 2h11.576c1.62 0 2.567-1.824 1.636-3.15l-1.303-1.855a8 8 0 00-6.547-3.403H65.5v-3.68l1.285-.548A2 2 0 0068 28.62v-2.077a2 2 0 00-2-2h-3a2 2 0 00-2 2v2.077a2 2 0 001.214 1.84l1.286.549v3.68h-7v-8.802a2 2 0 00-.423-1.23L54 21.995V17zm-2.5 8.888l1.5-1.923 1.5 1.923v8.801h-3v-8.801zm-9 2.794l-1.048.56-1.452-.62v-2.078h2.5v2.138zM49 46.505v-3.408h8v3.408a.998.998 0 01-1 1h-6a1 1 0 01-1-1zM48.399 71l4.6-3.604L57.602 71H48.4zm17.6-42.379l-1.5.641-1.5-.64v-2.078h3v2.077z" fill="#293A50"/><path d="M86.558 25A3.441 3.441 0 0190 28.442v21.017a7.495 7.495 0 01-6.943 7.474l4.938 14.75a1 1 0 11-1.897.634l-5.143-15.363h-6.863l-5.144 15.363a1 1 0 11-1.896-.634l4.931-14.73h-.064a3.942 3.942 0 010-7.883h11.198V36.698a1 1 0 012 0v13.137c0 .682-.553 1.235-1.235 1.235H71.92a1.942 1.942 0 000 3.883h10.587A5.495 5.495 0 0088 49.46V28.442a1.442 1.442 0 10-2.883 0v3.442a1 1 0 01-2 0v-3.442A3.441 3.441 0 0186.558 25zm-68.116 1A3.442 3.442 0 0015 29.442v20.507a7.354 7.354 0 006.93 7.341l-4.923 14.386a1 1 0 101.892.648l5.142-15.022h6.872l5.14 15.022a1 1 0 001.893-.648l-4.92-14.374h.12a3.878 3.878 0 000-7.755H21.883V37.465a1 1 0 00-2 0v12.847c0 .682.552 1.235 1.234 1.235h12.027a1.878 1.878 0 010 3.755H22.353A5.354 5.354 0 0117 49.95V29.442a1.442 1.442 0 112.884 0v3.314a1 1 0 002 0v-3.314A3.442 3.442 0 0018.442 26z" fill="#CC9C63"/></g><defs><clipPath id="clip0_518_153"><path fill="#fff" d="M0 0h90v90H0z"/></clipPath></defs></svg>