<svg width="90" height="90" fill="none" xmlns="http://www.w3.org/2000/svg"><path fill-rule="evenodd" clip-rule="evenodd" d="M79.484 19.817c-.539-.605-1.337-.75-2.004-.414-.617.311-.986.963-.99 1.67l-.234 35.9H72.5a1 1 0 000 2H87a.998.998 0 011 1v12a1 1 0 01-1 1H20a.997.997 0 01-1-1v-12a1 1 0 011-1h27v2a2 2 0 002 2h9a2 2 0 002-2v-2h8a1 1 0 100-2H31v-29.5c0-1.01-.46-2.328-1.045-3.554-.604-1.265-1.418-2.59-2.273-3.654-.533-.661-1.36-.855-2.069-.551-.677.29-1.113.974-1.113 1.76v26.5a1 1 0 102 0V22.01a17.865 17.865 0 011.65 2.77c.278.583.489 1.116.63 1.57l.012.04c.055.174.098.336.13.486.052.234.078.435.078.596v29.5h-2.5v-5a.995.995 0 00-.487-.858 1 1 0 00-1.513.859v5H20a3 3 0 00-3 3v12a3 3 0 003 3h2v2.5a2 2 0 002 2h7.5a2 2 0 002-2v-2.5h40v2.5a2 2 0 002 2H83a2 2 0 002-2v-2.5h2a3 3 0 003-3v-12a3 3 0 00-3-3h-4V28.291c0-1.014-.412-2.592-1.01-4.113-.607-1.54-1.475-3.203-2.506-4.362zM81 56.973h-2.744l.229-35.2c.622.871 1.195 2 1.643 3.139.573 1.455.872 2.75.872 3.38v28.681zm-23 4h-9v-2h9v2zm-34 16.5v-2.5h7.5v2.5H24zm51.5 0v-2.5H83v2.5h-7.5z" fill="#293A50"/><path d="M41 66.973a1 1 0 000 2h25a1 1 0 000-2H41zm-10.5 1a.997.997 0 01-1 1 1 1 0 111-1zm53 1a1 1 0 100-2 1 1 0 000 2zm-57.673-.054a1 1 0 11-.653-1.89 1 1 0 01.653 1.89zm53.673.054a1 1 0 100-2 1 1 0 000 2z" fill="#293A50"/><path fill-rule="evenodd" clip-rule="evenodd" d="M41.171 17.757a2.757 2.757 0 00-1.671 2.534c0 1.98 2.024 3.315 3.844 2.535l1.933-.829a20.875 20.875 0 0116.446 0l1.933.829c1.82.78 3.844-.555 3.844-2.535 0-1.102-.657-2.1-1.671-2.534l-1.605-.688a27.224 27.224 0 00-21.448 0l-1.605.688zm21.34 2.402l1.933.829a.757.757 0 10.597-1.393l-1.605-.687a25.224 25.224 0 00-19.872 0l-1.605.687a.758.758 0 00.597 1.393l1.933-.829a22.875 22.875 0 0118.022 0z" fill="#CC9C63"/><path fill-rule="evenodd" clip-rule="evenodd" d="M45.5 26.746c0-1.336.909-2.5 2.205-2.824l.857-.214c3.242-.81 6.634-.81 9.876 0l.857.214a2.91 2.91 0 11-1.411 5.647l-.418-.104a16.353 16.353 0 00-7.932 0l-.418.104a2.91 2.91 0 01-3.616-2.823zm12.869.883l-.418-.105c-2.922-.73-5.98-.73-8.902 0l-.418.105a.91.91 0 11-.441-1.767l.857-.214c2.924-.73 5.982-.73 8.906 0l.857.214a.91.91 0 01-.441 1.767zm-.869 7.844a4 4 0 11-8 0 4 4 0 018 0zm-2 0a2 2 0 11-4 0 2 2 0 014 0z" fill="#CC9C63"/></svg>