<svg width="90" height="90" fill="none" xmlns="http://www.w3.org/2000/svg"><path d="M58.686 54a1 1 0 11-2 0 1 1 0 012 0zm0 4.5a1 1 0 00-2 0c0 .58.084 1.51.328 2.511.242.997.66 2.14 1.372 3.089.807 1.077 1.789 2.07 3.147 2.785C62.89 67.6 64.558 68 66.686 68a1 1 0 100-2c-1.872 0-3.205-.35-4.222-.885-1.017-.535-1.786-1.292-2.478-2.215-.489-.651-.821-1.508-1.029-2.361a9.317 9.317 0 01-.271-2.04z" fill="#293A50"/><path fill-rule="evenodd" clip-rule="evenodd" d="M20.186 13a2 2 0 012-2h21a2 2 0 012 2v5.788l4 9V58h2.245V45h38.255v10a6 6 0 01-6 6h-.478l.02.898a11.01 11.01 0 01-3.867 8.618l-.46.392h9.785a1 1 0 010 2h-5.781L80.387 78H19.24l-.67-.039c-3.574-.208-4.888-4.803-1.964-6.87l.013-.008.067-.046V27.812l3.5-9V13zm1.684 7l-2.723 7h20.389l3.11-7H21.87zm22.316 1.462L41.724 27h4.923l-2.461-5.538zm-3 7.538v29h6V29h-6zm-2 29V29h-20.5v40.67l5.175-3.538.21-.818c.243-.953.997-1.805 1.871-2.253l6.724-2.457.468-.648A4.729 4.729 0 0136.965 58h2.22zm-6.657 4.783l-5.834 2.132a1.43 1.43 0 00-.687.894l-.242.944L27.975 76h7.008l-2.454-13.217zM37.017 76h16.945l-1.766-3.092h-5.592a1 1 0 110-2h9.427l-.433-.336a10.78 10.78 0 01-4.167-8.514V60H36.965c-.875 0-1.697.42-2.21 1.129l-.397.548L37.018 76zm22.274-5.092h16.526l2.247-1.914a9.01 9.01 0 003.164-7.053l-.042-1.93V47H53.43v15.058a8.78 8.78 0 003.394 6.935l2.466 1.915zM83.186 59h.5a4 4 0 004-4v-8h-4.5v12zM54.499 72.908L56.266 76h22.879l1.529-3.092H54.499zM25.92 76l-1.82-7.61-6.347 4.34c-1.37.975-.75 3.136.932 3.234l.612.036h6.62zm17.267-58h-21v-5h21v5z" fill="#293A50"/><path d="M72.186 25a5.502 5.502 0 005.41-4.505c.1-.543-.358-.995-.91-.995-.553 0-.986.457-1.142.987A3.501 3.501 0 0172.186 23h-6a4 4 0 000 8h14.25a2.25 2.25 0 110 4.5h-17.25a6.502 6.502 0 00-6.425 5.504c-.084.546.372.996.924.996.553 0 .989-.453 1.11-.992a4.502 4.502 0 014.39-3.508h17.25a4.25 4.25 0 000-8.5h-14.25a2 2 0 010-4h6z" fill="#CC9C63"/></svg>