<svg width="90" height="90" fill="none" xmlns="http://www.w3.org/2000/svg"><path fill-rule="evenodd" clip-rule="evenodd" d="M86 24v-8H36.5v9a1 1 0 11-2 0v-9.134A1 1 0 0134 15v-5a1 1 0 011-1h53a1 1 0 011 1v5a1 1 0 01-1 1v8a1 1 0 11-2 0zM36 11v3h51v-3H36z" fill="#CC9C63"/><path d="M88 28.5a1 1 0 10-2 0v14H42a1 1 0 100 2h44a2 2 0 002-2v-14z" fill="#CC9C63"/><path fill-rule="evenodd" clip-rule="evenodd" d="M72.5 19c.338 0 .671.018 1 .052 4.777.5 8.5 4.539 8.5 9.448a9.5 9.5 0 01-16.866 6l-.007-.009A9.455 9.455 0 0163 28.5c0-4.909 3.723-8.948 8.5-9.448a9.603 9.603 0 011-.052zm1 9.975v-7.909A7.501 7.501 0 0172.5 36a7.469 7.469 0 01-5.132-2.03l6.132-4.995zm-2-.95l-5.396 4.395A7.501 7.501 0 0171.5 21.066v6.959z" fill="#293A50"/><path fill-rule="evenodd" clip-rule="evenodd" d="M60.255 24.344a1 1 0 01-.099 1.41l-5.096 4.432c.692 1.44.4 3.216-.827 4.355l-5.038 4.678c-.194.18-.45.281-.715.281H42V47h47a1 1 0 011 1v5a1 1 0 01-1 1h-1v25a1 1 0 01-1 1H24a1 1 0 01-1-1V54h-1a1 1 0 01-1-1v-5a1 1 0 011-1h2v-8a6 6 0 016-6h1.257a5.5 5.5 0 118.486 0h5.366l4.26-3.932a3.59 3.59 0 014.371-.385l5.104-4.438a1 1 0 011.41.099zM86 78h-4v-4a4.001 4.001 0 00-3.307-3.94 5.5 5.5 0 10-8.386 0A4.001 4.001 0 0067 74v4h-4v-4a4.001 4.001 0 00-3.307-3.94 5.5 5.5 0 10-8.386 0A4.001 4.001 0 0048 74v4h-4v-4a4.001 4.001 0 00-3.307-3.94 5.5 5.5 0 10-8.386 0A4.001 4.001 0 0029 74v4h-4V54h61v24zm-8-11.5a3.5 3.5 0 11-7 0 3.5 3.5 0 017 0zM69 74a2 2 0 012-2h7a2 2 0 012 2v4H69v-4zm-8 4v-4a2 2 0 00-2-2h-7a2 2 0 00-2 2v4h11zm-5.5-8a3.5 3.5 0 100-7 3.5 3.5 0 000 7zM40 66.5a3.5 3.5 0 11-7 0 3.5 3.5 0 017 0zM31 74a2 2 0 012-2h7a2 2 0 012 2v4H31v-4zm-5-27h6.5a1.5 1.5 0 000-3h-2.958a1.042 1.042 0 01-1.042-1.042V38.5a1 1 0 112 0V42h2a3.5 3.5 0 013.163 5H40v-7.5a2 2 0 012-2h6.107l4.765-4.425c.689-.639.744-1.71.125-2.417a1.588 1.588 0 00-2.272-.12l-4.534 4.185a1.045 1.045 0 01-.708.277H30a4 4 0 00-4 4v8zm62 5v-3H23v3h65zM39 29.5a3.5 3.5 0 11-7 0 3.5 3.5 0 017 0z" fill="#293A50"/></svg>