<svg width="90" height="90" fill="none" xmlns="http://www.w3.org/2000/svg"><path fill-rule="evenodd" clip-rule="evenodd" d="M48 15.5a1 1 0 100 2h10a1 1 0 100-2H48zM24.332 46.256a1 1 0 100-2 1 1 0 000 2zm0 6.744a1 1 0 100-2 1 1 0 000 2zM54 25h-2v56h2V25z" fill="#CC9C63"/><path d="M17 8a2 2 0 00-2 2v2.5a1 1 0 102 0V10h63a1 1 0 100-2H17z" fill="#293A50"/><path fill-rule="evenodd" clip-rule="evenodd" d="M84.5 8a1 1 0 100 2H88v71h-9.5v-2a1 1 0 10-2 0v2h-48V26h48v47.5a1 1 0 102 0V26a2 2 0 00-2-2h-48a2 2 0 00-2 2v12.5h-4a2 2 0 00-2 2v16a2 2 0 002 2h4V81H17V17a1 1 0 10-2 0v64a2 2 0 002 2h71a2 2 0 002-2V10a2 2 0 00-2-2h-3.5zm-62 32.5h4v16h-4v-16z" fill="#293A50"/><path fill-rule="evenodd" clip-rule="evenodd" d="M37 13a1 1 0 011-1h29a1 1 0 011 1v7a1 1 0 01-1 1H38a1 1 0 01-1-1v-7zm2 6v-5h27v5H39z" fill="#293A50"/></svg>