<svg width="90" height="90" fill="none" xmlns="http://www.w3.org/2000/svg"><g clip-path="url(#clip0_719_570)"><path d="M44.108 30.804l9.017 17.783 8.983-17.716 6.477 16.785a1 1 0 001.865-.72l-7.043-18.252c-.405-1.05-1.863-1.124-2.372-.12l-7.91 15.6-7.921-15.62c-.502-.99-1.934-.936-2.36.089l-12.7 30.558h-.907a2.612 2.612 0 100 5.224h14.99a2.612 2.612 0 000-5.224h-.586l2.41-6.398 2.576 4.234a1 1 0 001.71-1.04l-4.71-7.74-4.876 12.944h3.476a.612.612 0 110 1.224h-14.99a.612.612 0 010-1.224h2.243l12.628-30.387z" fill="#293A50"/><path d="M60.565 48.093l-7.079 13.363-.892-1.355a1 1 0 00-1.67 1.101l2.75 4.172 6.582-12.426 2.352 6.243h-.586a2.612 2.612 0 100 5.224h14.99a2.612 2.612 0 000-5.224h-1.38l-3.835-8.617a1 1 0 00-1.827.813l4.362 9.804h2.68a.612.612 0 110 1.224h-14.99a.612.612 0 010-1.224H65.5l-4.934-13.098z" fill="#293A50"/><path fill-rule="evenodd" clip-rule="evenodd" d="M67.6 19.216c-9.847-4.356-21.194-4.298-30.965.24-17.23 8.005-25.714 27.662-19.72 45.69l2.75 8.269H86.02l2.356-6.789c6.5-18.731-2.657-39.394-20.775-47.41zm-30.122 2.055c9.242-4.294 19.987-4.351 29.312-.226 17.18 7.601 25.85 27.191 19.696 44.925l-1.889 5.445H21.108l-2.294-6.9c-5.674-17.063 2.355-35.668 18.664-43.244z" fill="#293A50"/><path d="M39.936 25.057c7.79-3.533 16.791-3.581 24.649-.187 14.98 6.47 22.535 23.52 17.075 38.88l-1.302 3.665H69.021a1 1 0 000 2H81.77l1.775-4.994c5.818-16.368-2.233-34.506-18.168-41.387-8.37-3.615-17.959-3.566-26.268.201-15.162 6.876-22.63 24.136-17.262 39.896l2.14 6.284h35.4a1 1 0 000-2H25.419l-1.679-4.93c-5.036-14.784 1.971-30.977 16.196-37.428z" fill="#CC9C63"/></g><defs><clipPath id="clip0_719_570"><path fill="#fff" d="M0 0h90v90H0z"/></clipPath></defs></svg>