<svg width="90" height="66" fill="none" xmlns="http://www.w3.org/2000/svg"><path fill-rule="evenodd" clip-rule="evenodd" d="M77.94 26.287c6.757-.575 12.06-6.23 12.06-13.12C90 5.896 84.09 0 76.803 0c-7.288 0-13.197 5.895-13.197 13.168 0 6.941 5.383 12.628 12.211 13.131v30.08h-2.123a3.485 3.485 0 00-3.49 3.481v3.406c0 1.003.816 1.816 1.821 1.816h9.86c1.005 0 1.82-.813 1.82-1.816V59.86a3.485 3.485 0 00-3.489-3.48h-2.275V26.286zm9.936-13.12c0 6.103-4.957 11.05-11.073 11.05-6.115 0-11.073-4.947-11.073-11.05 0-6.101 4.958-11.048 11.073-11.048 6.116 0 11.073 4.947 11.073 11.049zM72.328 59.86c0-.752.612-1.362 1.366-1.362h6.522c.754 0 1.365.61 1.365 1.362v3.103h-9.253V59.86z" fill="#CC9C63"/><path fill-rule="evenodd" clip-rule="evenodd" d="M-.5 6.557h52.257c.381 0 .951.069 1.5.286.54.212 1.236.642 1.534 1.476.375 1.051.368 2.155-.335 3l-.023.028-2.73 2.857 3.77 4.033a1.06 1.06 0 01-.05 1.496c-.425.4-1.094.378-1.493-.049l-3.692-3.949-2.71 2.832-.007.008c-.104.104-.281.358-.412.684-.134.336-.153.585-.13.704.031.154.15.408.418.796.17.246.346.473.538.72.115.15.235.305.364.476.27.362.915 1.006 1.695 1.714a40.27 40.27 0 002.11 1.792c1.303 1.015 5.065 3.367 7.613 4.218 1.146.382 2.303.644 3.292.805l-6.237-7.2a1.06 1.06 0 01.105-1.493 1.056 1.056 0 011.492.106l7.931 9.155 2.945 3.48.002.002c.485.568 1.142 1.934.84 3.666-.068.398-.33 1.287-.674 2.388a282.81 282.81 0 01-1.357 4.193 1066.58 1066.58 0 01-3.975 11.735l-.014.04-.017.039c-.103.236-.28.6-.495.962-.198.335-.49.78-.842 1.08-.34.292-.758.495-1.082.626a6.141 6.141 0 01-.879.283l-.117.028H54.1c-2.12 3.405-5.893 5.672-10.194 5.672-4.27 0-8.02-2.233-10.148-5.597H-.5v-2.117h33.194a12.014 12.014 0 01-.794-4.311c0-6.642 5.374-12.025 12.005-12.025 6.63 0 12.004 5.383 12.004 12.025 0 1.49-.27 2.918-.765 4.235h5.239c.118-.033.283-.086.453-.155a1.99 1.99 0 00.5-.27c.072-.062.22-.248.4-.553.154-.26.285-.526.361-.696.92-2.665 2.294-6.688 3.49-10.276H61.27c-.973 0-2.015-.49-2.797-1.238-.807-.772-1.431-1.907-1.431-3.3 0-2.685 2.117-4.386 3.85-4.386h7.057c-.1-.36-.247-.599-.31-.672v-.002l-2.622-3.098c-1.376-.022-3.732-.376-5.969-1.123-2.853-.952-6.828-3.453-8.242-4.555a42.298 42.298 0 01-2.232-1.895c-.768-.697-1.558-1.465-1.967-2.011a32.9 32.9 0 00-.29-.38c-.217-.28-.46-.595-.658-.882-.298-.431-.632-.984-.752-1.586-.138-.688.031-1.384.24-1.905.21-.527.525-1.037.87-1.387l3.466-3.622 3.363-3.519c.059-.083.164-.323-.046-.914-.005-.014-.05-.113-.317-.218a2.175 2.175 0 00-.726-.138H-.5V6.557zm44.404 56.571a9.883 9.883 0 01-8.498-4.837 1.057 1.057 0 00-.235-.415 9.877 9.877 0 01-1.157-4.655c0-5.472 4.428-9.908 9.89-9.908 5.463 0 9.891 4.436 9.891 9.908 0 5.471-4.428 9.907-9.89 9.907zM67.778 38.7h-6.885c-.532 0-1.736.719-1.736 2.269 0 .724.319 1.33.777 1.768.483.461 1.026.652 1.337.652h5.018c.43-1.305.81-2.484 1.107-3.434.157-.5.284-.92.382-1.255z" fill="#293A50"/><path d="M-.5 16.238h26.737v.896-.896c1.877 0 3.89.766 5.555 1.631 1.685.876 3.152 1.925 3.971 2.636 1.222 1.06 3.241 3.48 4.173 4.803 1.026 1.456 1.662 3.309 1.392 5.291-.136 1-.88 1.686-1.582 2.083a5.169 5.169 0 01-2.486.648H-.5v-2.117h37.76a3.06 3.06 0 001.445-.374c.433-.245.52-.466.528-.526.183-1.345-.238-2.669-1.024-3.784-.88-1.25-2.788-3.518-3.83-4.424-.691-.6-2.018-1.555-3.56-2.356-1.563-.811-3.212-1.393-4.582-1.393v-1.06 1.06H-.5v-2.118zm25.454 21.176a1.058 1.058 0 000 2.118h3.775a1.058 1.058 0 000-2.118h-3.775z" fill="#293A50"/><path fill-rule="evenodd" clip-rule="evenodd" d="M74.263 6.393c-.634 0-1.148.517-1.148 1.155v11.4A1.05 1.05 0 0074.162 20a1.05 1.05 0 001.047-1.052v-4.36h2.355c2.251 0 4.076-1.835 4.076-4.098 0-2.262-1.825-4.097-4.076-4.097h-3.3zm3.301 6.09H75.21V8.498h2.355c1.095 0 1.982.892 1.982 1.992s-.887 1.993-1.982 1.993z" fill="#CC9C63"/><path d="M39.774 52.164c-.5-.134-1.025.164-1.068.68a5.245 5.245 0 103.456-4.502c-.488.175-.64.758-.381 1.206.259.45.833.588 1.336.462a3.37 3.37 0 11-2.551 3.325c-.009-.518-.292-1.037-.792-1.171z" fill="#CC9C63"/></svg>