<svg width="90" height="90" fill="none" xmlns="http://www.w3.org/2000/svg"><path fill-rule="evenodd" clip-rule="evenodd" d="M60.962 44.5c0 6.33-5.132 11.462-11.462 11.462S38.038 50.83 38.038 44.5 43.17 33.038 49.5 33.038 60.962 38.17 60.962 44.5zm-1.698 0a9.763 9.763 0 01-9.764 9.764 9.763 9.763 0 01-9.764-9.764 9.763 9.763 0 019.764-9.764 9.763 9.763 0 019.764 9.764z" fill="#293A50"/><path fill-rule="evenodd" clip-rule="evenodd" d="M72 44.5C72 56.926 61.926 67 49.5 67S27 56.926 27 44.5 37.074 22 49.5 22 72 32.074 72 44.5zm-1.698 0c0 11.489-9.313 20.802-20.802 20.802-11.489 0-20.802-9.313-20.802-20.802 0-11.489 9.313-20.802 20.802-20.802 11.489 0 20.802 9.313 20.802 20.802z" fill="#293A50"/><path d="M42.265 31.656c-.262-.465-.098-1.057.382-1.29a15.707 15.707 0 11-6.222 5.43c.295-.444.904-.526 1.329-.204.425.322.505.927.213 1.373a13.776 13.776 0 105.63-4.912c-.483.229-1.07.067-1.332-.397z" fill="#CC9C63"/><path fill-rule="evenodd" clip-rule="evenodd" d="M85 19.006c0-.646-.601-1.124-1.231-.979l-1.135.262A7.914 7.914 0 0076.5 26v20.193l1.995 4.987-.428 16.262a3.467 3.467 0 106.933.091V19.007zM78.5 26a5.914 5.914 0 014.5-5.742v47.275a1.467 1.467 0 11-2.934-.039l.44-16.674-2.006-5.013V26zM15 19a1 1 0 10-2 0v14.217l2.5 5.5V68a3 3 0 106 0V38.717l2.5-5.5V19a1 1 0 10-2 0v7.5h-2.5V19a1 1 0 10-2 0v7.5H15V19zm7 9.5v4.283l-2.5 5.5V68a1 1 0 11-2 0V38.283l-2.5-5.5V28.5h7z" fill="#CC9C63"/></svg>