<svg width="90" height="90" fill="none" xmlns="http://www.w3.org/2000/svg"><path fill-rule="evenodd" clip-rule="evenodd" d="M32.418 7a2 2 0 00-2 2v12.5h-6.466a1.078 1.078 0 00-.765.317l-9.221 9.221a3.298 3.298 0 004.664 4.664l7.202-7.202h4.586V53h2V28.5h2V53h2V28.5h11.5v13.086l-1 1A2 2 0 0046.6 45h-2.414a2 2 0 00-1.932 1.485l-1.467 5.5A2 2 0 0042.72 54.5h12.396a2 2 0 001.933-2.515l-1.467-5.5A2 2 0 0053.65 45h-2.413a2 2 0 00-.319-2.414l-1-1V28.5h2a1 1 0 000-2H25.451c-.286 0-.56.114-.763.316l-7.472 7.472a1.298 1.298 0 01-1.836-1.836l8.952-8.952h49.172l8.952 8.952a1.297 1.297 0 11-1.836 1.836l-7.471-7.472a1.08 1.08 0 00-.764-.316H57.418a1 1 0 000 2h4V53h2V28.5h2V53h2V28.5h4.586l7.202 7.202a3.298 3.298 0 004.664-4.664l-9.22-9.22a1.083 1.083 0 00-.766-.318h-6.466V9a2 2 0 00-2-2h-33zm33 5v-2a1 1 0 00-1-1h-31a1 1 0 00-1 1v2h33zm-33 2v1.5h33V14h-33zm33 3.5h-2v4h2v-4zm-4 0h-11.5v4h11.5v-4zm-13.5 0h-11.5v4h11.5v-4zm-13.5 0h-2v4h2v-4zM48.332 44l.586-.586.586.586-.586.586-.586-.586zm5.318 3l1.466 5.5H42.72l1.466-5.5h9.464z" fill="#293A50"/><path d="M42.418 62h-2v10h2V62zm15 10V62h-2v10h2zm4-10h2v10h-2V62zm-25 0h-2v10h2V62zm-6 0h2v10h-2V62zm37 0h-2v10h2V62z" fill="#293A50"/><path fill-rule="evenodd" clip-rule="evenodd" d="M29.418 52.5a2 2 0 00-2 2v3.553c-1.214.266-2 1.476-2 2.59 0 1.51 1.257 2.357 2.5 2.357h42a2.5 2.5 0 00.499-4.95l.001-.05v-3.5a2 2 0 00-2-2h-39zm39 5.5h-39v-3.5h39V58zm1.5 2a.5.5 0 110 1h-42c-.206 0-.339-.065-.405-.123-.054-.046-.095-.11-.095-.234 0-.077.017-.162.05-.244a.766.766 0 01.139-.226c.12-.136.237-.173.311-.173h42zm-41.5 11a4 4 0 00-4 4v5.002c0 1.107.898 1.998 2 1.998h45a2 2 0 002-2v-5a4 4 0 00-4-4h-41zm-2 4a2 2 0 012-2h41a2 2 0 012 2v5h-45v-3h37a1 1 0 100-2h-37z" fill="#CC9C63"/></svg>