<svg width="90" height="90" fill="none" xmlns="http://www.w3.org/2000/svg"><g clip-path="url(#clip0_601_717)" fill-rule="evenodd" clip-rule="evenodd"><path d="M36.5 23.5a2 2 0 00-2 2v4a2 2 0 002 2h16.406c.849 0 1.346-.955.86-1.65a14.861 14.861 0 00-10.074-6.19l-1.047-.15a1.23 1.23 0 00-.149-.01H36.5zm0 2h5.929l.98.14a12.862 12.862 0 017.493 3.86H36.5v-4zM21.669 37c-3.515 0-6.067 3.342-5.142 6.732.123.453.535.768 1.005.768h.309l.43 1.003a5.147 5.147 0 003.482 2.966c.082.02.167.031.252.031H35.54l13.604 15.872-11.13 12.92a3.328 3.328 0 105.049 4.338L53.5 69.453l10.49 12.238a2.95 2.95 0 104.474-3.845l-11.061-12.84L68.25 52.66a1 1 0 10-1.502-1.32L56.084 63.477l-1.764-2.048L65.458 48.5h18.536c.131 0 .261-.025.383-.074a6.792 6.792 0 003.84-3.926h.76c.406 0 .775-.237.943-.606C91.387 40.665 89.027 37 85.48 37H78.5a1 1 0 000 2h6.98c1.887 0 3.204 1.758 2.81 3.5H18.342a3.332 3.332 0 013.327-3.5H72.5a1 1 0 100-2H21.669zm-1.56 7.715l-.092-.215h65.997a4.792 4.792 0 01-2.215 2H22.13a3.147 3.147 0 01-2.022-1.785zM50.465 62.84L38.175 48.5h2.367L51.68 61.429l-1.215 1.41zM53 59.897L43.181 48.5H62.82L53 59.897zm-1.218 4.478L53 62.961l13.949 16.19a.95.95 0 11-1.441 1.238L51.782 64.375zM39.529 78.597l10.932-12.69 1.722 2.01-10.639 12.411a1.329 1.329 0 11-2.015-1.731z" fill="#293A50"/><path d="M16 10a4 4 0 014 4v8.5a5.502 5.502 0 004.5 5.41V28a2 2 0 002 2h2v3a2 2 0 00-2 2v2a2 2 0 002 2h35.48A1.02 1.02 0 0065 37.98a4.98 4.98 0 00-4.632-4.968A16.566 16.566 0 0044 19H33.5a5 5 0 00-4.975 4.5H26.5a2 2 0 00-2 2v.355A3.501 3.501 0 0122 22.5V14a6 6 0 00-6-6v2zm12.5 15.5V28h-2v-2.5h2zM58.338 33H30.5v-9a3 3 0 013-3H44a14.566 14.566 0 0114.338 12zM28.5 35h31.52a2.98 2.98 0 012.815 2H28.5v-2z" fill="#CC9C63"/></g><defs><clipPath id="clip0_601_717"><path fill="#fff" d="M0 0h90v90H0z"/></clipPath></defs></svg>