<svg width="90" height="90" fill="none" xmlns="http://www.w3.org/2000/svg"><path d="M21.203 60.971c-8.218-15.244-3.887-34.24 10.118-44.381 13.438-9.732 31.817-8.428 43.752 2.928l-6.745-.078a1.031 1.031 0 00-1.042 1.022c-.006.57.45 1.038 1.018 1.045l9.267.107a1.031 1.031 0 001.042-1.022l.106-9.3a1.032 1.032 0 00-1.017-1.044 1.032 1.032 0 00-1.042 1.021l-.078 6.836C63.934 5.988 44.394 4.575 30.116 14.914c-14.845 10.75-19.435 30.883-10.724 47.04l2.193 4.069c.27.502.895.689 1.396.417.5-.272.686-.899.415-1.4l-2.193-4.069zm61.594-31.942c8.218 15.244 3.887 34.24-10.118 44.381-13.438 9.732-31.817 8.428-43.752-2.928l6.745.078a1.031 1.031 0 001.042-1.022 1.032 1.032 0 00-1.018-1.045l-9.267-.107a1.031 1.031 0 00-1.042 1.022l-.107 9.3c-.006.57.45 1.038 1.018 1.044a1.031 1.031 0 001.042-1.021l.078-6.836c12.648 12.117 32.188 13.53 46.466 3.191 14.844-10.75 19.435-30.883 10.724-47.04l-2.193-4.069a1.028 1.028 0 00-1.396-.417c-.5.272-.686.899-.415 1.4l2.193 4.069z" fill="#CC9C63"/><path fill-rule="evenodd" clip-rule="evenodd" d="M76.33 44.924c.625 0 1.134-.507 1.106-1.13a25.377 25.377 0 10-1.07 8.507 1.094 1.094 0 00-.791-1.37c-.605-.154-1.218.212-1.402.809a23.097 23.097 0 01-1.507 3.708l-2.168-1.252a.976.976 0 00-.976 1.69l2.182 1.26a23.114 23.114 0 01-7.397 7.398l-1.26-2.182a.976.976 0 10-1.69.976l1.251 2.167a23.117 23.117 0 01-9.548 2.514V65.42a.976.976 0 00-1.952 0v2.6a23.107 23.107 0 01-9.372-2.426l1.302-2.256a.976.976 0 10-1.69-.976l-1.32 2.285a23.114 23.114 0 01-7.478-7.364l2.418-1.396a.976.976 0 10-.976-1.69l-2.415 1.394a23.12 23.12 0 01-2.588-9.691h2.598a.976.976 0 100-1.952H28.99a23.112 23.112 0 012.498-9.517l2.505 1.447a.976.976 0 10.976-1.69l-2.523-1.457a23.112 23.112 0 016.735-6.987l1.192 2.064a.976.976 0 101.69-.976l-1.217-2.108a23.118 23.118 0 0110.263-2.896v2.599a.976.976 0 001.952 0v-2.599a23.114 23.114 0 019.692 2.588l-1.395 2.416a.976.976 0 101.691.976l1.396-2.418a23.11 23.11 0 016.635 6.36l-2.533 1.461a.976.976 0 10.976 1.69l2.536-1.463a.984.984 0 00.064-.04 23.117 23.117 0 013.05 10.395c.031.624.535 1.13 1.159 1.13zm-29.535 1.345l-4.704 4.544h7.892v1.919H38.925v-1.5l6.266-6.066c1.627-1.588 1.934-2.559 1.934-3.53 0-1.587-1.121-2.558-3.276-2.558-1.648 0-2.99.53-3.935 1.677l-1.495-1.302c1.187-1.478 3.232-2.338 5.628-2.338 3.21 0 5.277 1.654 5.277 4.301 0 1.5-.44 2.846-2.529 4.853zm15.053.772h2.924v1.897h-2.924v3.794h-2.132v-3.794h-8.553v-1.544l7.871-10.102h2.374l-7.54 9.749h5.914v-3.353h2.066v3.353z" fill="#293A50"/></svg>